<?xml version="1.0" encoding="utf-8"?>
<!-- Generator: Adobe Illustrator 24.0.3, SVG Export Plug-In . SVG Version: 6.00 Build 0)  -->
<svg version="1.1" xmlns="http://www.w3.org/2000/svg" xmlns:xlink="http://www.w3.org/1999/xlink" x="0px" y="0px"
	 viewBox="0 0 1088.5 2239.4" style="enable-background:new 0 0 1088.5 2239.4;" xml:space="preserve">
<style type="text/css">
	.st0{fill:none;stroke:#000000;stroke-width:0.7087;stroke-linecap:round;stroke-linejoin:round;stroke-miterlimit:10;}
</style>
<g id="top">
	<g id="CIRCLE">
		<path class="st0" d="M70.9,407.6c-2.5,0-4.5-2-4.5-4.5s2-4.5,4.5-4.5c2.5,0,4.5,2,4.5,4.5S73.4,407.6,70.9,407.6L70.9,407.6z"/>
	</g>
	<g id="CIRCLE_1_">
		<path class="st0" d="M70.9,755.6c-2.5,0-4.5-2-4.5-4.5c0-2.5,2-4.5,4.5-4.5s4.5,2,4.5,4.5C75.4,753.6,73.4,755.6,70.9,755.6
			L70.9,755.6z"/>
	</g>
	<g id="CIRCLE_2_">
		<path class="st0" d="M70.9,59.6c-2.5,0-4.5-2-4.5-4.5c0-2.5,2-4.5,4.5-4.5c2.5,0,4.5,2,4.5,4.5C75.4,57.5,73.4,59.6,70.9,59.6
			L70.9,59.6z"/>
	</g>
	<g id="CIRCLE_3_">
		<path class="st0" d="M334.9,407.6c-2.5,0-4.5-2-4.5-4.5s2-4.5,4.5-4.5s4.5,2,4.5,4.5S337.4,407.6,334.9,407.6L334.9,407.6z"/>
	</g>
	<g id="CIRCLE_4_">
		<path class="st0" d="M334.9,755.6c-2.5,0-4.5-2-4.5-4.5c0-2.5,2-4.5,4.5-4.5s4.5,2,4.5,4.5C339.5,753.6,337.4,755.6,334.9,755.6
			L334.9,755.6z"/>
	</g>
	<g id="CIRCLE_5_">
		<path class="st0" d="M334.9,59.6c-2.5,0-4.5-2-4.5-4.5c0-2.5,2-4.5,4.5-4.5s4.5,2,4.5,4.5S337.4,59.6,334.9,59.6L334.9,59.6z"/>
	</g>
	<g id="LWPOLYLINE">
		<path class="st0" d="M147.6,675.8l0,51.2c0,0.8,0.6,1.4,1.4,1.4c0,0,161.9,0,161.9,0c0.8,0,1.4-0.6,1.4-1.4l0-647.9
			c0-0.8-0.6-1.4-1.4-1.4l-161.9,0c-0.8,0-1.4,0.6-1.4,1.4c0,0,0,51.2,0,51.2c0,0.8-0.6,1.4-1.4,1.4l-51.2,0c-0.8,0-1.4,0.6-1.4,1.4
			l0,539.9c0,0.8,0.6,1.4,1.4,1.4l51.2,0C146.9,674.4,147.6,675,147.6,675.8z"/>
	</g>
	<g id="LWPOLYLINE_1_">
		<path class="st0" d="M343.4,32.3c7.8,0,14.2,6.3,14.2,14.2l0,713.1c0,7.8-6.3,14.2-14.2,14.2l-281.1,0c-7.8,0-14.2-6.3-14.2-14.2
			l0-713.1c0-7.8,6.3-14.2,14.2-14.2L343.4,32.3z"/>
	</g>
</g>
<g id="top_copy">
	<g id="CIRCLE_11_">
		<path class="st0" d="M70.9,1167.6c-2.5,0-4.5-2-4.5-4.5c0-2.5,2-4.5,4.5-4.5c2.5,0,4.5,2,4.5,4.5
			C75.4,1165.5,73.4,1167.6,70.9,1167.6L70.9,1167.6z"/>
	</g>
	<g id="CIRCLE_10_">
		<path class="st0" d="M70.9,1515.6c-2.5,0-4.5-2-4.5-4.5s2-4.5,4.5-4.5s4.5,2,4.5,4.5S73.4,1515.6,70.9,1515.6L70.9,1515.6z"/>
	</g>
	<g id="CIRCLE_9_">
		<path class="st0" d="M70.9,819.6c-2.5,0-4.5-2-4.5-4.5c0-2.5,2-4.5,4.5-4.5c2.5,0,4.5,2,4.5,4.5C75.4,817.5,73.4,819.6,70.9,819.6
			L70.9,819.6z"/>
	</g>
	<g id="CIRCLE_8_">
		<path class="st0" d="M334.9,1167.6c-2.5,0-4.5-2-4.5-4.5s2-4.5,4.5-4.5s4.5,2,4.5,4.5S337.4,1167.6,334.9,1167.6L334.9,1167.6z"/>
	</g>
	<g id="CIRCLE_7_">
		<path class="st0" d="M334.9,1515.6c-2.5,0-4.5-2-4.5-4.5c0-2.5,2-4.5,4.5-4.5s4.5,2,4.5,4.5
			C339.5,1513.6,337.4,1515.6,334.9,1515.6L334.9,1515.6z"/>
	</g>
	<g id="CIRCLE_6_">
		<path class="st0" d="M334.9,819.6c-2.5,0-4.5-2-4.5-4.5c0-2.5,2-4.5,4.5-4.5s4.5,2,4.5,4.5C339.5,817.5,337.4,819.6,334.9,819.6
			L334.9,819.6z"/>
	</g>
	<g id="LWPOLYLINE_3_">
		<path class="st0" d="M147.6,1435.8l0,51.2c0,0.8,0.6,1.4,1.4,1.4c0,0,161.9,0,161.9,0c0.8,0,1.4-0.6,1.4-1.4l0-647.9
			c0-0.8-0.6-1.4-1.4-1.4l-161.9,0c-0.8,0-1.4,0.6-1.4,1.4c0,0,0,51.2,0,51.2c0,0.8-0.6,1.4-1.4,1.4l-51.2,0c-0.8,0-1.4,0.6-1.4,1.4
			l0,539.9c0,0.8,0.6,1.4,1.4,1.4h51.2C146.9,1434.4,147.6,1435,147.6,1435.8z"/>
	</g>
	<g id="LWPOLYLINE_2_">
		<path class="st0" d="M343.4,792.3c7.8,0,14.2,6.3,14.2,14.2l0,713.1c0,7.8-6.3,14.2-14.2,14.2l-281.1,0c-7.8,0-14.2-6.3-14.2-14.2
			l0-713.1c0-7.8,6.3-14.2,14.2-14.2L343.4,792.3z"/>
	</g>
</g>
<g id="plate_wrap">
	<g id="LWPOLYLINE_11_">
		<polygon class="st0" points="426.2,1841.7 431.3,1832.9 426.2,1824.2 416.1,1824.2 411,1832.9 416.1,1841.7 		"/>
	</g>
	<g id="LWPOLYLINE_10_">
		<polygon class="st0" points="774.3,1841.7 779.3,1832.9 774.3,1824.2 764.1,1824.2 759,1832.9 764.1,1841.7 		"/>
	</g>
	<g id="LWPOLYLINE_9_">
		<polygon class="st0" points="68.1,1560.1 63,1568.9 68.1,1577.7 78.2,1577.7 83.3,1568.9 78.2,1560.1 		"/>
	</g>
	<g id="LWPOLYLINE_8_">
		<polygon class="st0" points="416.1,1560.1 411,1568.9 416.1,1577.7 426.2,1577.7 431.3,1568.9 426.2,1560.1 		"/>
	</g>
	<g id="LWPOLYLINE_4_">
		<polygon class="st0" points="764.1,1560.1 759,1568.9 764.1,1577.7 774.3,1577.7 779.3,1568.9 774.3,1560.1 		"/>
	</g>
	<g id="LWPOLYLINE_5_">
		<polygon class="st0" points="78.2,1841.7 83.3,1832.9 78.2,1824.2 68.1,1824.2 63,1832.9 68.1,1841.7 		"/>
	</g>
	<g id="LWPOLYLINE_6_">
		<path class="st0" d="M769.2,1700.3v-8.3c0-2.5-0.8-4.9-2.4-6.9l-10.6-13.8c-0.8-1-1.2-2.2-1.2-3.5l0-73.4
			c0-6.3-5.1-11.3-11.3-11.3c0,0-100.8,0-100.8,0c-1.3,0-2.5-0.4-3.5-1.2l-13.8-10.6c-2-1.5-4.4-2.4-6.9-2.4l-8.3,0c0,0-1.1,0-1.1,0
			l-8.3,0c-2.5,0-4.9,0.8-6.9,2.4l-13.8,10.6c-1,0.8-2.2,1.2-3.5,1.2c0,0-122.4,0-122.4,0l-66.1,0l-133.9,0c-1.3,0-2.5-0.4-3.5-1.2
			c0,0-13.9-10.7-13.9-10.7c-2-1.5-4.4-2.4-6.9-2.4l-8.2,0l-1.1,0l-8.3,0c-2.5,0-4.9,0.8-6.9,2.3l-13.8,10.7c-1,0.8-2.2,1.2-3.4,1.2
			c0,0-89.4,0-89.4,0c-6.3,0-11.3,5.1-11.3,11.3l0,73.2c0,1.2-0.4,2.5-1.2,3.4L75.5,1685c-1.5,2-2.3,4.4-2.3,6.9l0,8.4l0,1.1l0,8.3
			c0,2.5,0.8,4.9,2.4,6.9c0,0,10.7,13.9,10.7,13.9c0.8,1,1.2,2.2,1.2,3.5c0,0,0,73.4,0,73.4c0,6.3,5.1,11.3,11.3,11.3
			c0,0,89.5,0,89.5,0c1.3,0,2.5,0.4,3.5,1.2c0,0,13.8,10.6,13.8,10.6c2,1.5,4.4,2.4,6.9,2.4l8.3,0l1.1,0l8.3,0
			c2.5,0,4.9-0.8,6.9-2.4l13.8-10.6c1-0.8,2.2-1.2,3.5-1.2l133.9,0l66.1,0l122.4,0c1.3,0,2.5,0.4,3.5,1.2c0,0,13.8,10.6,13.8,10.6
			c2,1.5,4.4,2.4,6.9,2.4h8.3h1.1h8.3c2.5,0,4.9-0.8,6.9-2.4l13.8-10.6c1-0.8,2.2-1.2,3.5-1.2l12.7,0l88.1,0
			c6.3,0,11.3-5.1,11.3-11.3c0,0,0-2.6,0-2.6l0-70.8c0-1.3,0.4-2.5,1.2-3.5l10.7-13.9c1.5-2,2.4-4.4,2.4-6.9c0,0,0-8.3,0-8.3V1700.3
			z"/>
	</g>
	<g id="LWPOLYLINE_7_">
		<path class="st0" d="M791.9,1841.4c0,7.8-6.3,14.2-14.2,14.2l-713.1,0c-7.8,0-14.2-6.3-14.2-14.2l0-281.1
			c0-7.8,6.3-14.2,14.2-14.2l713.1,0c7.8,0,14.2,6.3,14.2,14.2V1841.4z"/>
	</g>
</g>
<g id="mid">
	<g id="LWPOLYLINE_18_">
		<polygon class="st0" points="683.1,400.9 674.3,395.8 665.5,400.9 665.5,411 674.3,416.1 683.1,411 		"/>
	</g>
	<g id="LWPOLYLINE_17_">
		<polygon class="st0" points="683.1,52.9 674.3,47.8 665.5,52.9 665.5,63 674.3,68.1 683.1,63 		"/>
	</g>
	<g id="LWPOLYLINE_16_">
		<polygon class="st0" points="401.5,759.1 410.3,764.1 419.1,759.1 419.1,748.9 410.3,743.8 401.5,748.9 		"/>
	</g>
	<g id="LWPOLYLINE_15_">
		<polygon class="st0" points="401.5,411 410.3,416.1 419.1,411 419.1,400.9 410.3,395.8 401.5,400.9 		"/>
	</g>
	<g id="LWPOLYLINE_14_">
		<polygon class="st0" points="401.5,63 410.3,68.1 419.1,63 419.1,52.9 410.3,47.8 401.5,52.9 		"/>
	</g>
	<g id="LWPOLYLINE_13_">
		<polygon class="st0" points="683.1,748.9 674.3,743.8 665.5,748.9 665.5,759.1 674.3,764.1 683.1,759.1 		"/>
	</g>
	<g id="LWPOLYLINE_12_">
		<path class="st0" d="M697,116.1l-36.9,0V83.4c0-6.3-5.1-11.3-11.3-11.3l-213,0c-6.3,0-11.3,5.1-11.3,11.3l0,645
			c0,6.3,5.1,11.3,11.3,11.3l213,0c6.3,0,11.3-5.1,11.3-11.3l0-572.7l36.9,0v606.7c0,7.8-6.3,14.2-14.2,14.2l-281.1,0
			c-7.8,0-14.2-6.3-14.2-14.2l0-713.1c0-7.8,6.3-14.2,14.2-14.2l281.1,0c7.8,0,14.2,6.3,14.2,14.2V116.1z"/>
	</g>
</g>
<g id="mid_copy">
	<g id="LWPOLYLINE_25_">
		<polygon class="st0" points="1027.7,400.9 1018.9,395.8 1010.1,400.9 1010.1,411 1018.9,416.1 1027.7,411 		"/>
	</g>
	<g id="LWPOLYLINE_24_">
		<polygon class="st0" points="1027.7,52.9 1018.9,47.8 1010.1,52.9 1010.1,63 1018.9,68.1 1027.7,63 		"/>
	</g>
	<g id="LWPOLYLINE_23_">
		<polygon class="st0" points="746,759.1 754.8,764.1 763.6,759.1 763.6,748.9 754.8,743.8 746,748.9 		"/>
	</g>
	<g id="LWPOLYLINE_22_">
		<polygon class="st0" points="746,411 754.8,416.1 763.6,411 763.6,400.9 754.8,395.8 746,400.9 		"/>
	</g>
	<g id="LWPOLYLINE_21_">
		<polygon class="st0" points="746,63 754.8,68.1 763.6,63 763.6,52.9 754.8,47.8 746,52.9 		"/>
	</g>
	<g id="LWPOLYLINE_20_">
		<polygon class="st0" points="1027.7,748.9 1018.9,743.8 1010.1,748.9 1010.1,759.1 1018.9,764.1 1027.7,759.1 		"/>
	</g>
	<g id="LWPOLYLINE_19_">
		<path class="st0" d="M1041.6,116.1l-36.9,0V83.4c0-6.3-5.1-11.3-11.3-11.3l-213,0c-6.3,0-11.3,5.1-11.3,11.3l0,645
			c0,6.3,5.1,11.3,11.3,11.3l213,0c6.3,0,11.3-5.1,11.3-11.3l0-572.7l36.9,0v606.7c0,7.8-6.3,14.2-14.2,14.2l-281.1,0
			c-7.8,0-14.2-6.3-14.2-14.2l0-713.1c0-7.8,6.3-14.2,14.2-14.2l281.1,0c7.8,0,14.2,6.3,14.2,14.2V116.1z"/>
	</g>
</g>
<g id="mid_copy_2">
	<g id="LWPOLYLINE_32_">
		<polygon class="st0" points="683.1,1158 674.3,1152.9 665.5,1158 665.5,1168.1 674.3,1173.2 683.1,1168.1 		"/>
	</g>
	<g id="LWPOLYLINE_31_">
		<polygon class="st0" points="683.1,809.9 674.3,804.9 665.5,809.9 665.5,820.1 674.3,825.2 683.1,820.1 		"/>
	</g>
	<g id="LWPOLYLINE_30_">
		<polygon class="st0" points="401.5,1516.1 410.3,1521.2 419.1,1516.1 419.1,1506 410.3,1500.9 401.5,1506 		"/>
	</g>
	<g id="LWPOLYLINE_29_">
		<polygon class="st0" points="401.5,1168.1 410.3,1173.2 419.1,1168.1 419.1,1158 410.3,1152.9 401.5,1158 		"/>
	</g>
	<g id="LWPOLYLINE_28_">
		<polygon class="st0" points="401.5,820.1 410.3,825.2 419.1,820.1 419.1,809.9 410.3,804.9 401.5,809.9 		"/>
	</g>
	<g id="LWPOLYLINE_27_">
		<polygon class="st0" points="683.1,1506 674.3,1500.9 665.5,1506 665.5,1516.1 674.3,1521.2 683.1,1516.1 		"/>
	</g>
	<g id="LWPOLYLINE_26_">
		<path class="st0" d="M697,873.2l-36.9,0v-32.7c0-6.3-5.1-11.3-11.3-11.3l-213,0c-6.3,0-11.3,5.1-11.3,11.3l0,645
			c0,6.3,5.1,11.3,11.3,11.3l213,0c6.3,0,11.3-5.1,11.3-11.3l0-572.7l36.9,0l0,606.7c0,7.8-6.3,14.2-14.2,14.2l-281.1,0
			c-7.8,0-14.2-6.3-14.2-14.2l0-713.1c0-7.8,6.3-14.2,14.2-14.2l281.1,0c7.8,0,14.2,6.3,14.2,14.2V873.2z"/>
	</g>
</g>
<g id="bottom">
	<g id="CIRCLE_20_">
		<path class="st0" d="M978.7,904.9c-2.5,0-4.5-2-4.5-4.5c0-2.5,2-4.5,4.5-4.5c2.5,0,4.5,2,4.5,4.5
			C983.2,902.9,981.2,904.9,978.7,904.9L978.7,904.9z"/>
	</g>
	<g id="CIRCLE_19_">
		<path class="st0" d="M978.7,1167.9c-2.5,0-4.5-2-4.5-4.5c0-2.5,2-4.5,4.5-4.5c2.5,0,4.5,2,4.5,4.5
			C983.2,1165.9,981.2,1167.9,978.7,1167.9L978.7,1167.9z"/>
	</g>
	<g id="CIRCLE_18_">
		<path class="st0" d="M978.7,1430.9c-2.5,0-4.5-2-4.5-4.5s2-4.5,4.5-4.5c2.5,0,4.5,2,4.5,4.5S981.2,1430.9,978.7,1430.9
			L978.7,1430.9z"/>
	</g>
	<g id="CIRCLE_17_">
		<path class="st0" d="M754.3,1167.9c-2.5,0-4.5-2-4.5-4.5s2-4.5,4.5-4.5c2.5,0,4.5,2,4.5,4.5S756.8,1167.9,754.3,1167.9
			L754.3,1167.9z"/>
	</g>
	<g id="CIRCLE_16_">
		<path class="st0" d="M754.3,1516c-2.5,0-4.5-2-4.5-4.5c0-2.5,2-4.5,4.5-4.5c2.5,0,4.5,2,4.5,4.5
			C758.9,1513.9,756.8,1516,754.3,1516L754.3,1516z"/>
	</g>
	<g id="CIRCLE_15_">
		<path class="st0" d="M754.3,819.9c-2.5,0-4.5-2-4.5-4.5c0-2.5,2-4.5,4.5-4.5c2.5,0,4.5,2,4.5,4.5
			C758.9,817.9,756.8,819.9,754.3,819.9L754.3,819.9z"/>
	</g>
	<g id="CIRCLE_14_">
		<path class="st0" d="M1018.4,1167.9c-2.5,0-4.5-2-4.5-4.5c0-2.5,2-4.5,4.5-4.5c2.5,0,4.5,2,4.5,4.5
			C1022.9,1165.9,1020.9,1167.9,1018.4,1167.9L1018.4,1167.9z"/>
	</g>
	<g id="CIRCLE_13_">
		<path class="st0" d="M1018.4,1516c-2.5,0-4.5-2-4.5-4.5s2-4.5,4.5-4.5s4.5,2,4.5,4.5S1020.9,1516,1018.4,1516L1018.4,1516z"/>
	</g>
	<g id="CIRCLE_12_">
		<path class="st0" d="M1018.4,819.9c-2.5,0-4.5-2-4.5-4.5c0-2.5,2-4.5,4.5-4.5c2.5,0,4.5,2,4.5,4.5S1020.9,819.9,1018.4,819.9
			L1018.4,819.9z"/>
	</g>
	<g id="LWPOLYLINE_33_">
		<path class="st0" d="M1026.9,792.7c7.8,0,14.2,6.3,14.2,14.2l0,713.1c0,7.8-6.3,14.2-14.2,14.2H745.8c-7.8,0-14.2-6.3-14.2-14.2
			l0-713.1c0-7.8,6.3-14.2,14.2-14.2H1026.9z"/>
	</g>
</g>
<g id="foot_1">
	<g id="CIRCLE_23_">
		<path class="st0" d="M677.4,1636.3c0-2.5,2-4.5,4.5-4.5c2.5,0,4.5,2,4.5,4.5s-2,4.5-4.5,4.5
			C679.5,1640.8,677.4,1638.8,677.4,1636.3L677.4,1636.3z"/>
	</g>
	<g id="CIRCLE_22_">
		<path class="st0" d="M414.5,1636.3c0-2.5,2-4.5,4.5-4.5s4.5,2,4.5,4.5s-2,4.5-4.5,4.5S414.5,1638.8,414.5,1636.3L414.5,1636.3z"/>
	</g>
	<g id="CIRCLE_21_">
		<path class="st0" d="M151.5,1636.3c0-2.5,2-4.5,4.5-4.5c2.5,0,4.5,2,4.5,4.5s-2,4.5-4.5,4.5
			C153.5,1640.8,151.5,1638.8,151.5,1636.3L151.5,1636.3z"/>
	</g>
	<g id="LWPOLYLINE_34_">
		<path class="st0" d="M701.8,1596.6c7.8,0,14.2,6.3,14.2,14.2v34c0,7.8-6.3,14.2-14.2,14.2H136.2c-7.8,0-14.2-6.3-14.2-14.2v-34
			c0-7.8,6.3-14.2,14.2-14.2H701.8z"/>
	</g>
</g>
<g id="Layer_9">
	<g id="CIRCLE_26_">
		<path class="st0" d="M674.7,1704.7c0-2.5,2-4.5,4.5-4.5c2.5,0,4.5,2,4.5,4.5c0,2.5-2,4.5-4.5,4.5
			C676.7,1709.3,674.7,1707.2,674.7,1704.7L674.7,1704.7z"/>
	</g>
	<g id="CIRCLE_25_">
		<path class="st0" d="M411.7,1704.7c0-2.5,2-4.5,4.5-4.5s4.5,2,4.5,4.5c0,2.5-2,4.5-4.5,4.5S411.7,1707.2,411.7,1704.7
			L411.7,1704.7z"/>
	</g>
	<g id="CIRCLE_24_">
		<path class="st0" d="M148.7,1704.7c0-2.5,2-4.5,4.5-4.5s4.5,2,4.5,4.5c0,2.5-2,4.5-4.5,4.5S148.7,1707.2,148.7,1704.7
			L148.7,1704.7z"/>
	</g>
	<g id="LWPOLYLINE_35_">
		<path class="st0" d="M133.4,1727.4c-7.8,0-14.2-6.3-14.2-14.2v-25.5c0-7.8,6.3-14.2,14.2-14.2h565.7c7.8,0,14.2,6.3,14.2,14.2
			v25.5c0,7.8-6.3,14.2-14.2,14.2H133.4z"/>
	</g>
</g>
<g id="Layer_10">
	<g id="CIRCLE_29_">
		<path class="st0" d="M144.5,1773.8c0-4.1,3.3-7.4,7.4-7.4c4.1,0,7.4,3.3,7.4,7.4c0,4.1-3.3,7.4-7.4,7.4
			C147.8,1781.2,144.5,1777.9,144.5,1773.8L144.5,1773.8z"/>
	</g>
	<g id="CIRCLE_28_">
		<path class="st0" d="M407.5,1773.8c0-4.1,3.3-7.4,7.4-7.4c4.1,0,7.4,3.3,7.4,7.4c0,4.1-3.3,7.4-7.4,7.4
			C410.8,1781.2,407.5,1777.9,407.5,1773.8L407.5,1773.8z"/>
	</g>
	<g id="CIRCLE_27_">
		<path class="st0" d="M670.5,1773.8c0-4.1,3.3-7.4,7.4-7.4s7.4,3.3,7.4,7.4c0,4.1-3.3,7.4-7.4,7.4S670.5,1777.9,670.5,1773.8
			L670.5,1773.8z"/>
	</g>
	<g id="LWPOLYLINE_36_">
		<path class="st0" d="M697.7,1751.1c7.8,0,14.2,6.3,14.2,14.2v17c0,7.8-6.3,14.2-14.2,14.2H132c-7.8,0-14.2-6.3-14.2-14.2v-17
			c0-7.8,6.3-14.2,14.2-14.2H697.7z"/>
	</g>
</g>
</svg>
