0
SECTION
2
HEADER
9
$INSUNITS
70
4
9
$ACADVER
1
AC1014
9
$HANDSEED
5
FFFF
0
ENDSEC
0
SECTION
2
TABLES
0
TABLE
2
VPORT
5
8
100
AcDbSymbolTable
0
ENDTAB
0
TABLE
2
LTYPE
5
5
100
AcDbSymbolTable
0
LTYPE
5
14
100
AcDbSymbolTableRecord
100
AcDbLinetypeTableRecord
2
BYBLOCK
70
0
0
LTYPE
5
15
100
AcDbSymbolTableRecord
100
AcDbLinetypeTableRecord
2
BYLAYER
70
0
0
ENDTAB
0
TABLE
2
LAYER
5
2
100
AcDbSymbolTable
70
2
0
LAYER
5
50
100
AcDbSymbolTableRecord
100
AcDbLayerTableRecord
2
0
70
0
6
CONTINUOUS
0
ENDTAB
0
TABLE
2
STYLE
5
3
100
AcDbSymbolTable
70
1
0
STYLE
5
11
100
AcDbSymbolTableRecord
100
AcDbTextStyleTableRecord
2
STANDARD
70
0
0
ENDTAB
0
TABLE
2
VIEW
5
6
100
AcDbSymbolTable
70
0
0
ENDTAB
0
TABLE
2
UCS
5
7
100
AcDbSymbolTable
70
0
0
ENDTAB
0
TABLE
2
APPID
5
9
100
AcDbSymbolTable
70
2
0
APPID
5
12
100
AcDbSymbolTableRecord
100
AcDbRegAppTableRecord
2
ACAD
70
0
0
ENDTAB
0
TABLE
2
DIMSTYLE
5
A
100
AcDbSymbolTable
70
1
0
ENDTAB
0
TABLE
2
BLOCK_RECORD
5
1
100
AcDbSymbolTable
70
1
0
BLOCK_RECORD
5
1F
100
AcDbSymbolTableRecord
100
AcDbBlockTableRecord
2
*MODEL_SPACE
0
BLOCK_RECORD
5
1B
100
AcDbSymbolTableRecord
100
AcDbBlockTableRecord
2
*PAPER_SPACE
0
ENDTAB
0
ENDSEC
0
SECTION
2
BLOCKS
0
BLOCK
5
20
100
AcDbEntity
100
AcDbBlockBegin
2
*MODEL_SPACE
0
ENDBLK
5
21
100
AcDbEntity
100
AcDbBlockEnd
0
BLOCK
5
1C
100
AcDbEntity
100
AcDbBlockBegin
2
*PAPER_SPACE
0
ENDBLK
5
1D
100
AcDbEntity
100
AcDbBlockEnd
0
ENDSEC
0
SECTION
2
ENTITIES
0
LWPOLYLINE
5
100
100
AcDbEntity
8
0
100
AcDbPolyline
90
6
70
1
43
0.0
10
-102.98525166551218
20
-21.099999999999834
10
-101.19546583102431
20
-17.999999999999826
10
-102.98525166551217
20
-14.899999999999823
10
-106.56482333448785
20
-14.89999999999981
10
-108.35460916897571
20
-17.999999999999808
10
-106.56482333448787
20
-21.09999999999982
0
LWPOLYLINE
5
101
100
AcDbEntity
8
0
100
AcDbPolyline
90
6
70
1
43
0.0
10
19.789785834487862
20
-21.099999999999831
10
21.57957166897571
20
-17.999999999999826
10
19.789785834487855
20
-14.899999999999814
10
16.210214165512166
20
-14.899999999999816
10
14.420428331024324
20
-17.999999999999822
10
16.21021416551217
20
-21.099999999999831
0
LWPOLYLINE
5
102
100
AcDbEntity
8
0
100
AcDbPolyline
90
6
70
1
43
0.0
10
-229.33986083448789
20
78.250049999999959
10
-231.12964666897574
20
75.150049999999979
10
-229.33986083448787
20
72.050050000000013
10
-225.76028916551221
20
72.050050000000027
10
-223.97050333102442
20
75.150050000000007
10
-225.76028916551223
20
78.250050000000002
0
LWPOLYLINE
5
103
100
AcDbEntity
8
0
100
AcDbPolyline
90
6
70
1
43
0.0
10
-106.56482333448785
20
78.250050000000016
10
-108.35460916897573
20
75.150050000000036
10
-106.56482333448787
20
72.050049999999999
10
-102.98525166551218
20
72.050049999999985
10
-101.19546583102434
20
75.150049999999979
10
-102.98525166551217
20
78.250050000000002
0
LWPOLYLINE
5
104
100
AcDbEntity
8
0
100
AcDbPolyline
90
6
70
1
43
0.0
10
16.21021416551217
20
78.250050000000002
10
14.420428331024322
20
75.150049999999993
10
16.21021416551217
20
72.050049999999985
10
19.789785834487855
20
72.050049999999985
10
21.579571668975696
20
75.150049999999993
10
19.789785834487862
20
78.250050000000002
0
LWPOLYLINE
5
105
100
AcDbEntity
8
0
100
AcDbPolyline
90
6
70
1
43
0.0
10
-225.76028916551221
20
-21.099999999999813
10
-223.97050333102442
20
-17.99999999999978
10
-225.76028916551223
20
-14.899999999999823
10
-229.33986083448789
20
-14.899999999999833
10
-231.12964666897571
20
-17.999999999999833
10
-229.33986083448787
20
-21.099999999999831
0
LWPOLYLINE
5
106
100
AcDbEntity
8
0
100
AcDbPolyline
90
74
70
1
43
0.0
10
17.999741231947986
20
28.783122876009749
10
17.999741231415367
20
31.704967033608629
42
0.1654081306735222
10
17.170236923922857
20
34.143810851479699
10
13.414488304771421
20
39.026284054535829
42
-0.16540875539570987
10
12.999741156921425
20
40.245696110166229
10
12.999804159854429
20
66.149827117211458
42
0.41420840587842295
10
8.9998830396602472
20
70.149838115529576
10
-26.560253861162959
20
70.15055065404492
42
-0.16540008106785833
10
-27.779611238528847
20
70.565304433441881
10
-32.662072222257017
20
74.321056539150362
42
0.16534691343144331
10
-35.099961263796075
20
75.150564775324
10
-38.030957593176275
20
75.151982047158896
10
-38.430950623280381
20
75.151948290314806
10
-41.362941960146756
20
75.150576537234684
42
0.16522725101274316
10
-43.798971439855862
20
74.321076670867271
10
-48.681441523274259
20
70.565342985084158
42
-0.16540914452692893
10
-49.900870348619819
20
70.150593358297371
10
-93.082129492956085
20
70.150833446164796
10
-116.40990260051865
20
70.145584155100067
10
-163.63848976754662
20
70.133967329848758
42
-0.1649984398525105
10
-164.88070404635948
20
70.555025861112199
10
-169.7741349807452
20
74.320521226397091
42
0.16545408366292938
10
-172.21354960619476
20
75.150436592668797
10
-175.1182472498528
20
75.150408245765647
10
-175.51818344631994
20
75.150750962520164
10
-178.45086752817326
20
75.149720058070372
42
0.1651178266050651
10
-180.88412719038308
20
74.321891066436692
10
-185.76898426454744
20
70.564280839822814
42
-0.16504998619760913
10
-186.98180833861059
20
70.150224110903011
10
-218.53475441059902
20
70.145182894842875
42
0.41406477940328024
10
-222.53410894556004
20
66.146582020968751
10
-222.5388994478412
20
40.325188267382863
42
-0.1648985243380022
10
-222.95146182189328
20
39.108987474513647
10
-226.72111565210804
20
34.190154453115959
42
0.16492438513169511
10
-227.54773575438281
20
31.757870431252456
10
-227.54856387438019
20
28.782822771298381
10
-227.54794827630963
20
28.3827454078973
10
-227.54723814538733
20
25.447084265439841
42
0.16534007956542904
10
-226.71757587852994
20
23.009358044545994
10
-222.95808502669945
20
18.122727554601681
42
-0.16547817275121382
10
-222.54324676566222
20
16.902786872843592
10
-222.54849759654923
20
-8.9982346467000074
42
0.41430351665341719
10
-218.54850731490359
20
-12.999463516729159
10
-186.98825891768604
20
-12.999502754897691
42
-0.16592339158338559
10
-185.76865284295397
20
-13.413553454485916
10
-180.88685433040075
20
-17.168750101511179
42
0.16551967863435363
10
-178.44813929513828
20
-17.998933655293428
10
-175.51786201184376
20
-17.999940777998404
10
-175.11783958513001
20
-18.004299640191114
10
-172.18201763425645
20
-17.990527413536277
42
0.16540541773939432
10
-169.75446443678524
20
-17.154801547987631
10
-164.88039286020251
20
-13.404142475479595
42
-0.16500106975029893
10
-163.6381644795045
20
-12.983061232403561
10
-116.40957700503263
20
-12.994308390508888
10
-93.081811115502987
20
-12.99937508876743
10
-49.900922203968037
20
-12.999604121667367
42
-0.16540678007759327
10
-48.681511674051372
20
-13.414356043890248
10
-43.799048050088459
20
-17.170097646893488
42
0.16540814241264784
10
-41.360204405750387
20
-17.999601956559125
10
-38.430586189503998
20
-17.999601956030528
10
-38.03059290580287
20
-17.999602535034708
10
-35.100991891549
20
-17.99960253450093
42
0.16540815018951771
10
-32.662147833990012
20
-17.170098042108776
10
-27.779511743851764
20
-13.414223534664249
42
-0.16541513261190002
10
-26.560022770078
20
-12.999513494577169
10
-22.080629510728464
20
-12.999602457771759
10
8.9996691396701607
20
-12.999062649586616
42
0.41409057436169877
10
12.999600611172035
20
-9.0006716119755268
10
12.999741374623424
20
-8.095944385218008
10
12.990844415534703
20
16.893317150862277
42
-0.16542608637748413
10
13.405596168910591
20
18.112877717497334
10
17.170236925070931
20
23.006910700613105
42
0.16540813067083843
10
17.999741232121401
20
25.445754518685128
10
17.999741232121217
20
28.383041842553549
0
LWPOLYLINE
5
107
100
AcDbEntity
8
0
100
AcDbPolyline
90
8
70
1
43
0.0
10
26.000000000000007
20
-21.000000000000021
42
-0.41421356237309503
10
21.000000000000014
20
-26
10
-230.55007500000002
20
-25.999999999999893
42
-0.41421356237309531
10
-235.55007499999999
20
-20.999999999999925
10
-235.55007500000002
20
78.150049999999979
42
-0.41421356237309503
10
-230.55007499999999
20
83.150049999999993
10
21.000000000000007
20
83.150049999999993
42
-0.41421356237309553
10
26.000000000000007
20
78.150049999999979
0
ENDSEC
0
SECTION
2
OBJECTS
0
DICTIONARY
5
C
100
AcDbDictionary
3
ACAD_GROUP
350
D
3
ACAD_MLINESTYLE
350
17
0
DICTIONARY
5
D
100
AcDbDictionary
0
DICTIONARY
5
1A
330
C
100
AcDbDictionary
0
DICTIONARY
5
17
100
AcDbDictionary
0
ENDSEC
0
EOF
