0
SECTION
2
HEADER
9
$INSUNITS
70
4
9
$ACADVER
1
AC1014
9
$HANDSEED
5
FFFF
0
ENDSEC
0
SECTION
2
TABLES
0
TABLE
2
VPORT
5
8
100
AcDbSymbolTable
0
ENDTAB
0
TABLE
2
LTYPE
5
5
100
AcDbSymbolTable
0
LTYPE
5
14
100
AcDbSymbolTableRecord
100
AcDbLinetypeTableRecord
2
BYBLOCK
70
0
0
LTYPE
5
15
100
AcDbSymbolTableRecord
100
AcDbLinetypeTableRecord
2
BYLAYER
70
0
0
ENDTAB
0
TABLE
2
LAYER
5
2
100
AcDbSymbolTable
70
2
0
LAYER
5
50
100
AcDbSymbolTableRecord
100
AcDbLayerTableRecord
2
0
70
0
6
CONTINUOUS
0
ENDTAB
0
TABLE
2
STYLE
5
3
100
AcDbSymbolTable
70
1
0
STYLE
5
11
100
AcDbSymbolTableRecord
100
AcDbTextStyleTableRecord
2
STANDARD
70
0
0
ENDTAB
0
TABLE
2
VIEW
5
6
100
AcDbSymbolTable
70
0
0
ENDTAB
0
TABLE
2
UCS
5
7
100
AcDbSymbolTable
70
0
0
ENDTAB
0
TABLE
2
APPID
5
9
100
AcDbSymbolTable
70
2
0
APPID
5
12
100
AcDbSymbolTableRecord
100
AcDbRegAppTableRecord
2
ACAD
70
0
0
ENDTAB
0
TABLE
2
DIMSTYLE
5
A
100
AcDbSymbolTable
70
1
0
ENDTAB
0
TABLE
2
BLOCK_RECORD
5
1
100
AcDbSymbolTable
70
1
0
BLOCK_RECORD
5
1F
100
AcDbSymbolTableRecord
100
AcDbBlockTableRecord
2
*MODEL_SPACE
0
BLOCK_RECORD
5
1B
100
AcDbSymbolTableRecord
100
AcDbBlockTableRecord
2
*PAPER_SPACE
0
ENDTAB
0
ENDSEC
0
SECTION
2
BLOCKS
0
BLOCK
5
20
100
AcDbEntity
100
AcDbBlockBegin
2
*MODEL_SPACE
0
ENDBLK
5
21
100
AcDbEntity
100
AcDbBlockEnd
0
BLOCK
5
1C
100
AcDbEntity
100
AcDbBlockBegin
2
*PAPER_SPACE
0
ENDBLK
5
1D
100
AcDbEntity
100
AcDbBlockEnd
0
ENDSEC
0
SECTION
2
ENTITIES
0
LWPOLYLINE
5
100
100
AcDbEntity
8
0
100
AcDbPolyline
90
6
70
1
43
0.0
10
-102.98525166551218
20
-21.099999999999834
10
-101.19546583102431
20
-17.999999999999826
10
-102.98525166551217
20
-14.899999999999823
10
-106.56482333448785
20
-14.89999999999981
10
-108.35460916897571
20
-17.999999999999808
10
-106.56482333448787
20
-21.09999999999982
0
LWPOLYLINE
5
101
100
AcDbEntity
8
0
100
AcDbPolyline
90
6
70
1
43
0.0
10
19.789785834487862
20
-21.099999999999831
10
21.57957166897571
20
-17.999999999999826
10
19.789785834487855
20
-14.899999999999814
10
16.210214165512166
20
-14.899999999999816
10
14.420428331024324
20
-17.999999999999822
10
16.21021416551217
20
-21.099999999999831
0
LWPOLYLINE
5
102
100
AcDbEntity
8
0
100
AcDbPolyline
90
6
70
1
43
0.0
10
-229.33986083448789
20
78.250049999999959
10
-231.12964666897574
20
75.150049999999979
10
-229.33986083448787
20
72.050050000000013
10
-225.76028916551221
20
72.050050000000027
10
-223.97050333102442
20
75.150050000000007
10
-225.76028916551223
20
78.250050000000002
0
LWPOLYLINE
5
103
100
AcDbEntity
8
0
100
AcDbPolyline
90
6
70
1
43
0.0
10
-106.56482333448785
20
78.250050000000016
10
-108.35460916897573
20
75.150050000000036
10
-106.56482333448787
20
72.050049999999999
10
-102.98525166551218
20
72.050049999999985
10
-101.19546583102434
20
75.150049999999979
10
-102.98525166551217
20
78.250050000000002
0
LWPOLYLINE
5
104
100
AcDbEntity
8
0
100
AcDbPolyline
90
6
70
1
43
0.0
10
16.21021416551217
20
78.250050000000002
10
14.420428331024322
20
75.150049999999993
10
16.21021416551217
20
72.050049999999985
10
19.789785834487855
20
72.050049999999985
10
21.579571668975696
20
75.150049999999993
10
19.789785834487862
20
78.250050000000002
0
LWPOLYLINE
5
105
100
AcDbEntity
8
0
100
AcDbPolyline
90
6
70
1
43
0.0
10
-225.76028916551221
20
-21.099999999999813
10
-223.97050333102442
20
-17.99999999999978
10
-225.76028916551223
20
-14.899999999999823
10
-229.33986083448789
20
-14.899999999999833
10
-231.12964666897571
20
-17.999999999999833
10
-229.33986083448787
20
-21.099999999999831
0
LWPOLYLINE
5
106
100
AcDbEntity
8
0
100
AcDbPolyline
90
20
70
1
43
0.0
10
-2.5249999999999995
20
-26
10
-2.5250000000000039
20
-12.999999999999998
10
9.0000000000000018
20
-13
42
0.41421356237309459
10
13
20
-9.0000000000000036
10
13.000000000000004
20
66.150050000000022
42
0.41421356237309581
10
8.9999999999999858
20
70.150050000000022
10
-218.55007500000002
20
70.150050000000036
42
0.4142135623730957
10
-222.55007500000002
20
66.150050000000022
10
-222.55007500000005
20
-8.9999999999999982
42
0.41421356237310047
10
-218.55007500000002
20
-13.000000000000021
10
-16.525000000000002
20
-12.999999999999998
10
-16.524999999999999
20
-26
10
-230.55007500000002
20
-25.999999999999893
42
-0.41421356237309531
10
-235.55007499999999
20
-20.999999999999925
10
-235.55007500000002
20
78.150049999999979
42
-0.41421356237309503
10
-230.55007499999999
20
83.150049999999993
10
21.000000000000007
20
83.150049999999993
42
-0.41421356237309553
10
26.000000000000007
20
78.150049999999979
10
26.000000000000007
20
-21.000000000000021
42
-0.41421356237309503
10
21.000000000000028
20
-26
0
ENDSEC
0
SECTION
2
OBJECTS
0
DICTIONARY
5
C
100
AcDbDictionary
3
ACAD_GROUP
350
D
3
ACAD_MLINESTYLE
350
17
0
DICTIONARY
5
D
100
AcDbDictionary
0
DICTIONARY
5
1A
330
C
100
AcDbDictionary
0
DICTIONARY
5
17
100
AcDbDictionary
0
ENDSEC
0
EOF
